<svg width="27" height="27" viewBox="0 0 27 27" fill="none" xmlns="http://www.w3.org/2000/svg">
<g clip-path="url(#clip0_1_3065)">
<path d="M13.5001 9.00073C12.6101 9.00073 11.7401 9.26465 11.0001 9.75912C10.26 10.2536 9.68326 10.9564 9.34267 11.7787C9.00207 12.6009 8.91296 13.5057 9.08659 14.3786C9.26022 15.2516 9.68881 16.0534 10.3181 16.6827C10.9475 17.312 11.7493 17.7406 12.6222 17.9143C13.4951 18.0879 14.3999 17.9988 15.2222 17.6582C16.0445 17.3176 16.7473 16.7408 17.2417 16.0008C17.7362 15.2608 18.0001 14.3907 18.0001 13.5007C18.0001 12.3073 17.526 11.1627 16.6821 10.3188C15.8382 9.47484 14.6936 9.00073 13.5001 9.00073ZM13.5001 15.7507C13.0551 15.7507 12.6201 15.6188 12.2501 15.3715C11.8801 15.1243 11.5917 14.7729 11.4214 14.3618C11.2511 13.9506 11.2065 13.4982 11.2934 13.0618C11.3802 12.6253 11.5945 12.2244 11.9091 11.9097C12.2238 11.5951 12.6247 11.3808 13.0612 11.294C13.4976 11.2071 13.95 11.2517 14.3612 11.422C14.7723 11.5923 15.1237 11.8807 15.3709 12.2507C15.6182 12.6207 15.7501 13.0557 15.7501 13.5007C15.7501 14.0975 15.5131 14.6698 15.0911 15.0917C14.6692 15.5137 14.0969 15.7507 13.5001 15.7507Z" fill="#50555C"/>
<path d="M23.9558 15.6375L23.4563 15.3495C23.6811 14.126 23.6811 12.8718 23.4563 11.6483L23.9558 11.3602C24.3399 11.1386 24.6766 10.8436 24.9467 10.4918C25.2167 10.1401 25.4149 9.73861 25.5298 9.3103C25.6447 8.88198 25.6741 8.43524 25.6164 7.99555C25.5587 7.55587 25.4149 7.13187 25.1933 6.74775C24.9717 6.36363 24.6766 6.02693 24.3248 5.75685C23.9731 5.48678 23.5716 5.28863 23.1433 5.17372C22.715 5.05881 22.2683 5.02938 21.8286 5.08712C21.3889 5.14487 20.9649 5.28864 20.5808 5.51025L20.0801 5.79938C19.1346 4.99153 18.048 4.36528 16.875 3.95213V3.375C16.875 2.47989 16.5194 1.62145 15.8865 0.988515C15.2536 0.355579 14.3951 0 13.5 0C12.6049 0 11.7465 0.355579 11.1135 0.988515C10.4806 1.62145 10.125 2.47989 10.125 3.375V3.95213C8.95208 4.36676 7.86585 4.99455 6.92102 5.80387L6.41814 5.5125C5.64238 5.06495 4.72061 4.94389 3.8556 5.17597C2.99059 5.40805 2.2532 5.97424 1.80564 6.75C1.35809 7.52576 1.23704 8.44753 1.46911 9.31254C1.70119 10.1776 2.26738 10.9149 3.04314 11.3625L3.54264 11.6505C3.31777 12.874 3.31777 14.1282 3.54264 15.3517L3.04314 15.6398C2.26738 16.0873 1.70119 16.8247 1.46911 17.6897C1.23704 18.5547 1.35809 19.4765 1.80564 20.2523C2.2532 21.028 2.99059 21.5942 3.8556 21.8263C4.72061 22.0584 5.64238 21.9373 6.41814 21.4897L6.91877 21.2006C7.86463 22.0086 8.95162 22.6348 10.125 23.0479V23.625C10.125 24.5201 10.4806 25.3786 11.1135 26.0115C11.7465 26.6444 12.6049 27 13.5 27C14.3951 27 15.2536 26.6444 15.8865 26.0115C16.5194 25.3786 16.875 24.5201 16.875 23.625V23.0479C18.048 22.6332 19.1342 22.0054 20.079 21.1961L20.5819 21.4864C21.3577 21.9339 22.2794 22.055 23.1444 21.8229C24.0094 21.5908 24.7468 21.0246 25.1944 20.2489C25.6419 19.4731 25.763 18.5513 25.5309 17.6863C25.2988 16.8213 24.7327 16.0839 23.9569 15.6364L23.9558 15.6375ZM21.0893 11.3895C21.4702 12.7699 21.4702 14.2278 21.0893 15.6082C21.0227 15.8485 21.0379 16.1041 21.1324 16.3348C21.2269 16.5655 21.3953 16.7583 21.6113 16.8829L22.8308 17.5871C23.0893 17.7363 23.278 17.9821 23.3553 18.2704C23.4326 18.5587 23.3923 18.8659 23.2431 19.1244C23.0939 19.383 22.8481 19.5717 22.5598 19.649C22.2715 19.7263 21.9643 19.6859 21.7058 19.5367L20.484 18.8303C20.2679 18.7051 20.0163 18.6554 19.7688 18.689C19.5213 18.7226 19.2921 18.8376 19.1171 19.0159C18.1158 20.0381 16.8543 20.7675 15.4688 21.1252C15.2269 21.1874 15.0127 21.3283 14.8597 21.5257C14.7067 21.723 14.6238 21.9657 14.6239 22.2154V23.625C14.6239 23.9234 14.5054 24.2095 14.2944 24.4205C14.0834 24.6315 13.7973 24.75 13.4989 24.75C13.2005 24.75 12.9144 24.6315 12.7034 24.4205C12.4924 24.2095 12.3739 23.9234 12.3739 23.625V22.2165C12.374 21.9668 12.2911 21.7241 12.1381 21.5268C11.9851 21.3294 11.7709 21.1886 11.529 21.1264C10.1434 20.7671 8.88226 20.0362 7.88177 19.0125C7.70686 18.8342 7.4776 18.7192 7.23012 18.6856C6.98264 18.652 6.73101 18.7017 6.51489 18.8269L5.29539 19.5322C5.1674 19.6073 5.02583 19.6563 4.87883 19.6764C4.73184 19.6965 4.58231 19.6873 4.43888 19.6494C4.29544 19.6114 4.16092 19.5455 4.04307 19.4554C3.92521 19.3653 3.82634 19.2527 3.75216 19.1242C3.67797 18.9958 3.62994 18.8539 3.61081 18.7067C3.59169 18.5596 3.60186 18.4102 3.64073 18.267C3.6796 18.1238 3.74642 17.9897 3.83732 17.8725C3.92822 17.7552 4.04142 17.6571 4.17039 17.5837L5.38989 16.8795C5.60584 16.7549 5.77428 16.5621 5.86876 16.3314C5.96324 16.1007 5.97841 15.8451 5.91189 15.6049C5.53092 14.2244 5.53092 12.7666 5.91189 11.3861C5.97722 11.1464 5.96132 10.8917 5.86668 10.662C5.77205 10.4322 5.604 10.2402 5.38877 10.116L4.16927 9.41175C3.91073 9.26257 3.72205 9.01679 3.64472 8.72849C3.5674 8.44018 3.60777 8.13297 3.75696 7.87444C3.90614 7.6159 4.15192 7.42722 4.44022 7.34989C4.72852 7.27257 5.03573 7.31294 5.29427 7.46212L6.51602 8.16862C6.73154 8.29408 6.98265 8.34436 7.22986 8.31158C7.47708 8.27879 7.70639 8.16479 7.88177 7.9875C8.88312 6.96526 10.1446 6.2359 11.5301 5.87812C11.7727 5.81576 11.9876 5.67422 12.1406 5.47594C12.2936 5.27766 12.3761 5.03397 12.375 4.7835V3.375C12.375 3.07663 12.4935 2.79048 12.7045 2.5795C12.9155 2.36853 13.2016 2.25 13.5 2.25C13.7984 2.25 14.0845 2.36853 14.2955 2.5795C14.5065 2.79048 14.625 3.07663 14.625 3.375V4.7835C14.6249 5.0332 14.7078 5.27585 14.8608 5.47322C15.0138 5.67058 15.2281 5.81145 15.4699 5.87363C16.8559 6.23267 18.1175 6.96362 19.1183 7.9875C19.2932 8.16578 19.5224 8.28078 19.7699 8.31439C20.0174 8.348 20.269 8.2983 20.4851 8.17313L21.7046 7.46775C21.8326 7.39271 21.9742 7.34374 22.1212 7.32364C22.2682 7.30354 22.4177 7.31272 22.5612 7.35064C22.7046 7.38856 22.8391 7.45448 22.957 7.5446C23.0748 7.63473 23.1737 7.74727 23.2479 7.87576C23.3221 8.00424 23.3701 8.14614 23.3892 8.29326C23.4083 8.44039 23.3982 8.58985 23.3593 8.73303C23.3204 8.87621 23.2536 9.01029 23.1627 9.12755C23.0718 9.2448 22.9586 9.34292 22.8296 9.41625L21.6101 10.1205C21.3953 10.245 21.2277 10.4372 21.1335 10.6669C21.0393 10.8967 21.0237 11.1511 21.0893 11.3906V11.3895Z" fill="#50555C"/>
</g>
<defs>
<clipPath id="clip0_1_3065">
<rect width="27" height="27" fill="white"/>
</clipPath>
</defs>
</svg>
