<svg width="24" height="24" viewBox="0 0 24 24" fill="none" xmlns="http://www.w3.org/2000/svg">
<g clip-path="url(#clip0_1_2570)">
<path d="M3.99981 6.00018C3.60556 6.00121 3.21502 5.92406 2.85078 5.77318C2.48655 5.6223 2.15584 5.40069 1.87781 5.12118L0.333807 3.74718C0.13569 3.57054 0.0158557 3.32244 0.000665257 3.05745C-0.0145252 2.79246 0.076173 2.53229 0.252807 2.33418C0.429441 2.13606 0.677543 2.01623 0.942531 2.00104C1.20752 1.98584 1.46769 2.07654 1.66581 2.25318L3.25081 3.66718C3.34154 3.76907 3.45217 3.85132 3.57588 3.90887C3.6996 3.96641 3.83378 3.99803 3.97016 4.00177C4.10655 4.00552 4.24227 3.98132 4.36895 3.93065C4.49564 3.87999 4.61061 3.80394 4.70681 3.70718L8.31081 0.276177C8.5046 0.103647 8.75787 0.0131959 9.01711 0.0239279C9.27635 0.0346599 9.52128 0.145735 9.70015 0.333692C9.87902 0.521649 9.97783 0.771771 9.97572 1.03123C9.9736 1.29069 9.87072 1.53916 9.68881 1.72418L6.09981 5.13818C5.82358 5.4128 5.49593 5.63028 5.1356 5.77818C4.77527 5.92609 4.38931 6.00153 3.99981 6.00018ZM23.9998 4.00018C23.9998 3.73496 23.8945 3.48061 23.7069 3.29307C23.5194 3.10553 23.265 3.00018 22.9998 3.00018H12.9998C12.7346 3.00018 12.4802 3.10553 12.2927 3.29307C12.1052 3.48061 11.9998 3.73496 11.9998 4.00018C11.9998 4.26539 12.1052 4.51975 12.2927 4.70728C12.4802 4.89482 12.7346 5.00018 12.9998 5.00018H22.9998C23.265 5.00018 23.5194 4.89482 23.7069 4.70728C23.8945 4.51975 23.9998 4.26539 23.9998 4.00018ZM6.09981 13.1382L9.68881 9.72418C9.78898 9.635 9.87019 9.52658 9.9276 9.40537C9.98502 9.28416 10.0175 9.15265 10.023 9.01864C10.0286 8.88464 10.0071 8.75089 9.95989 8.62535C9.91269 8.49982 9.84072 8.38506 9.74827 8.2879C9.65581 8.19075 9.54475 8.11318 9.4217 8.05983C9.29866 8.00647 9.16613 7.97841 9.03202 7.97732C8.89791 7.97622 8.76495 8.00212 8.64105 8.05346C8.51715 8.1048 8.40484 8.18054 8.31081 8.27618L4.71081 11.7072C4.52044 11.8892 4.2672 11.9908 4.00381 11.9908C3.74042 11.9908 3.48717 11.8892 3.29681 11.7072L1.70681 10.1222C1.5182 9.94002 1.2656 9.83922 1.00341 9.8415C0.741209 9.84378 0.490397 9.94895 0.304989 10.1344C0.11958 10.3198 0.0144115 10.5706 0.0121331 10.8328C0.00985468 11.095 0.110649 11.3476 0.292807 11.5362L1.87781 13.1212C2.43748 13.681 3.19572 13.9969 3.98731 14.0001C4.77889 14.0033 5.53965 13.6935 6.10381 13.1382H6.09981ZM23.9998 12.0002C23.9998 11.735 23.8945 11.4806 23.7069 11.2931C23.5194 11.1055 23.265 11.0002 22.9998 11.0002H12.9998C12.7346 11.0002 12.4802 11.1055 12.2927 11.2931C12.1052 11.4806 11.9998 11.735 11.9998 12.0002C11.9998 12.2654 12.1052 12.5197 12.2927 12.7073C12.4802 12.8948 12.7346 13.0002 12.9998 13.0002H22.9998C23.265 13.0002 23.5194 12.8948 23.7069 12.7073C23.8945 12.5197 23.9998 12.2654 23.9998 12.0002ZM6.09981 21.1382L9.68481 17.7242C9.78498 17.635 9.86619 17.5266 9.9236 17.4054C9.98102 17.2842 10.0135 17.1526 10.019 17.0186C10.0246 16.8846 10.0031 16.7509 9.95589 16.6254C9.90869 16.4998 9.83672 16.3851 9.74427 16.2879C9.65181 16.1907 9.54075 16.1132 9.4177 16.0598C9.29466 16.0065 9.16214 15.9784 9.02802 15.9773C8.89391 15.9762 8.76095 16.0021 8.63704 16.0535C8.51314 16.1048 8.40084 16.1805 8.30681 16.2762L4.70681 19.7072C4.61061 19.8039 4.49564 19.88 4.36895 19.9307C4.24227 19.9813 4.10655 20.0055 3.97016 20.0018C3.83378 19.998 3.6996 19.9664 3.57588 19.9089C3.45217 19.8513 3.34154 19.7691 3.25081 19.6672L1.66581 18.2532C1.46769 18.0765 1.20752 17.9858 0.942531 18.001C0.677543 18.0162 0.429441 18.1361 0.252807 18.3342C0.076173 18.5323 -0.0145252 18.7925 0.000665257 19.0575C0.0158557 19.3224 0.13569 19.5705 0.333807 19.7472L1.87781 21.1212C2.43748 21.681 3.19572 21.9969 3.98731 22.0001C4.77889 22.0033 5.53965 21.6935 6.10381 21.1382H6.09981ZM23.9998 20.0002C23.9998 19.735 23.8945 19.4806 23.7069 19.2931C23.5194 19.1055 23.265 19.0002 22.9998 19.0002H12.9998C12.7346 19.0002 12.4802 19.1055 12.2927 19.2931C12.1052 19.4806 11.9998 19.735 11.9998 20.0002C11.9998 20.2654 12.1052 20.5198 12.2927 20.7073C12.4802 20.8948 12.7346 21.0002 12.9998 21.0002H22.9998C23.265 21.0002 23.5194 20.8948 23.7069 20.7073C23.8945 20.5198 23.9998 20.2654 23.9998 20.0002Z" fill="#50555C"/>
</g>
<defs>
<clipPath id="clip0_1_2570">
<rect width="24" height="24" fill="white"/>
</clipPath>
</defs>
</svg>
