<svg width="24" height="23" viewBox="0 0 24 23" fill="none" xmlns="http://www.w3.org/2000/svg">
<path d="M19 3.99936H16.9C16.6679 2.87077 16.0538 1.85671 15.1613 1.12808C14.2687 0.399449 13.1522 0.000813655 12 -0.000640869H5C3.67441 0.000946989 2.40356 0.528241 1.46622 1.46558C0.528882 2.40292 0.00158786 3.67376 0 4.99936L0 13.9994C0.0025138 14.895 0.305538 15.7639 0.860536 16.4668C1.41553 17.1698 2.19039 17.6661 3.061 17.8764C2.96676 18.3768 2.98287 18.8918 3.10819 19.3854C3.23351 19.879 3.46503 20.3392 3.7866 20.7341C4.10816 21.129 4.51202 21.4489 4.96999 21.6716C5.42796 21.8943 5.92901 22.0144 6.43817 22.0235C6.94733 22.0326 7.45234 21.9304 7.91796 21.7242C8.38357 21.518 8.79858 21.2126 9.13401 20.8294C9.46944 20.4463 9.71722 19.9945 9.86006 19.5057C10.0029 19.0169 10.0373 18.5028 9.961 17.9994H14.043C14.0173 18.1648 14.0036 18.3319 14.002 18.4994C14.002 19.4276 14.3707 20.3179 15.0271 20.9742C15.6835 21.6306 16.5737 21.9994 17.502 21.9994C18.4303 21.9994 19.3205 21.6306 19.9769 20.9742C20.6333 20.3179 21.002 19.4276 21.002 18.4994C21.0009 18.2903 20.9804 18.0817 20.941 17.8764C21.8112 17.6657 22.5856 17.1692 23.1403 16.4663C23.6949 15.7634 23.9976 14.8947 24 13.9994V8.99936C23.9984 7.67377 23.4711 6.40292 22.5338 5.46558C21.5964 4.52824 20.3256 4.00095 19 3.99936ZM22 8.99936V9.99936H17V5.99936H19C19.7956 5.99936 20.5587 6.31543 21.1213 6.87804C21.6839 7.44065 22 8.20371 22 8.99936ZM2 13.9994V4.99936C2 4.20371 2.31607 3.44065 2.87868 2.87804C3.44129 2.31543 4.20435 1.99936 5 1.99936H12C12.7956 1.99936 13.5587 2.31543 14.1213 2.87804C14.6839 3.44065 15 4.20371 15 4.99936V15.9994H4C3.46957 15.9994 2.96086 15.7886 2.58579 15.4136C2.21071 15.0385 2 14.5298 2 13.9994ZM8 18.4994C8 18.8972 7.84196 19.2787 7.56066 19.56C7.27936 19.8413 6.89782 19.9994 6.5 19.9994C6.10218 19.9994 5.72064 19.8413 5.43934 19.56C5.15804 19.2787 5 18.8972 5 18.4994C5.00061 18.3285 5.03212 18.1591 5.093 17.9994H7.907C7.96788 18.1591 7.99939 18.3285 8 18.4994ZM17.5 19.9994C17.1022 19.9994 16.7206 19.8413 16.4393 19.56C16.158 19.2787 16 18.8972 16 18.4994C16.0004 18.3284 16.0319 18.159 16.093 17.9994H18.907C18.9681 18.159 18.9996 18.3284 19 18.4994C19 18.8972 18.842 19.2787 18.5607 19.56C18.2794 19.8413 17.8978 19.9994 17.5 19.9994ZM20 15.9994H17V11.9994H22V13.9994C22 14.5298 21.7893 15.0385 21.4142 15.4136C21.0391 15.7886 20.5304 15.9994 20 15.9994Z" fill="#50555C"/>
</svg>
