<svg width="20" height="21" viewBox="0 0 20 21" fill="none" xmlns="http://www.w3.org/2000/svg">
<path d="M15.0577 20.9995C15.5041 20.8963 15.9668 20.8393 16.3938 20.6826C18.2022 20.0196 19.3863 18.7377 19.8322 16.8477C20.2974 14.8777 19.79 13.1331 18.3746 11.6961C14.9159 8.18321 11.4454 4.68114 7.97092 1.18421C6.22147 -0.576331 3.50094 -0.341628 2.06416 1.67364C1.00259 3.16301 1.17749 5.26764 2.51919 6.63016C6.00285 10.1666 9.49921 13.6903 12.9956 17.2139C13.6926 17.916 14.6886 18.0896 15.5631 17.6951C16.4294 17.3048 16.9617 16.4359 16.92 15.4621C16.8977 14.9336 16.7106 14.4648 16.3684 14.0621C16.2982 13.9794 16.222 13.9008 16.1452 13.8238C12.6194 10.2622 9.0935 6.70103 5.56765 3.1399C5.51579 3.08752 5.4619 3.0377 5.42122 2.99867C5.06228 3.36433 4.71198 3.72075 4.3083 4.13264C4.35457 4.16192 4.44151 4.19633 4.50252 4.25795C8.02074 7.80779 11.5364 11.3602 15.0536 14.911C15.2351 15.0944 15.3882 15.287 15.3861 15.5638C15.3841 15.8802 15.2468 16.119 14.9698 16.2607C14.6937 16.402 14.4196 16.3758 14.1659 16.1924C14.1004 16.1452 14.0424 16.0861 13.985 16.0286C10.545 12.5543 7.10509 9.07991 3.66668 5.60404C2.72866 4.65546 2.65952 3.29295 3.49535 2.33872C4.31847 1.39939 5.74101 1.29206 6.69277 2.09888C6.77564 2.16924 6.85444 2.24474 6.93071 2.32177C10.3711 5.7956 13.8116 9.26891 17.2495 12.7458C18.3344 13.8428 18.699 15.1483 18.307 16.6521C17.9369 18.0726 16.6226 19.2179 15.1863 19.4038C13.866 19.5748 12.7505 19.1665 11.8145 18.221C8.29427 14.6635 4.77299 11.1075 1.25273 7.54997C1.19172 7.48834 1.14342 7.41388 1.10072 7.35944C0.71534 7.74821 0.363516 8.10361 0 8.4703C0.0411816 8.51395 0.0950737 8.57302 0.150999 8.63002C3.65702 12.1727 7.16661 15.7117 10.6681 19.2595C11.6193 20.223 12.7353 20.8259 14.0826 20.9692C14.1237 20.9738 14.1639 20.9897 14.2046 21H15.0572L15.0577 20.9995Z" fill="#50555C"/>
</svg>
