<svg width="15" height="15" viewBox="0 0 15 15" fill="none" xmlns="http://www.w3.org/2000/svg">
<path d="M12.3185 4.29722H11.2481C11.5963 3.99126 11.8727 3.61266 12.0577 3.18829C12.2427 2.76392 12.3318 2.30418 12.3185 1.84167C12.3185 1.67885 12.2537 1.52271 12.1381 1.40758C12.0226 1.29246 11.866 1.22778 11.7026 1.22778C11.5393 1.22778 11.3826 1.29246 11.2671 1.40758C11.1516 1.52271 11.0867 1.67885 11.0867 1.84167C11.0867 3.45128 9.62633 4.00869 8.51581 4.19961C8.9257 3.47526 9.17245 2.67064 9.23891 1.84167C9.23891 1.35323 9.04423 0.884791 8.69771 0.539412C8.35118 0.194032 7.88119 0 7.39113 0C6.90107 0 6.43108 0.194032 6.08455 0.539412C5.73802 0.884791 5.54335 1.35323 5.54335 1.84167C5.60981 2.67064 5.85656 3.47526 6.26645 4.19961C5.15593 4.00869 3.69556 3.45128 3.69556 1.84167C3.69556 1.67885 3.63067 1.52271 3.51516 1.40758C3.39965 1.29246 3.24299 1.22778 3.07964 1.22778C2.91628 1.22778 2.75962 1.29246 2.64411 1.40758C2.5286 1.52271 2.46371 1.67885 2.46371 1.84167C2.45047 2.30418 2.53951 2.76392 2.72452 3.18829C2.90952 3.61266 3.18594 3.99126 3.53419 4.29722H2.46371C1.81029 4.29722 1.18364 4.55593 0.721604 5.01644C0.259569 5.47694 0 6.10152 0 6.75278L0 7.36667C0 7.69229 0.129784 8.00458 0.360802 8.23484C0.59182 8.46509 0.905147 8.59445 1.23185 8.59445V11.6639C1.23283 12.4777 1.55761 13.2578 2.13494 13.8332C2.71227 14.4087 3.49502 14.7324 4.31149 14.7333H10.4708C11.2872 14.7324 12.07 14.4087 12.6473 13.8332C13.2247 13.2578 13.5494 12.4777 13.5504 11.6639V8.59445C13.8771 8.59445 14.1904 8.46509 14.4215 8.23484C14.6525 8.00458 14.7823 7.69229 14.7823 7.36667V6.75278C14.7823 6.10152 14.5227 5.47694 14.0607 5.01644C13.5986 4.55593 12.972 4.29722 12.3185 4.29722ZM7.39113 1.22778C7.55448 1.22778 7.71115 1.29246 7.82665 1.40758C7.94216 1.52271 8.00706 1.67885 8.00706 1.84167C7.9327 2.49413 7.72295 3.12402 7.39113 3.69131C7.05931 3.12402 6.84955 2.49413 6.7752 1.84167C6.7752 1.67885 6.84009 1.52271 6.9556 1.40758C7.07111 1.29246 7.22777 1.22778 7.39113 1.22778ZM1.23185 6.75278C1.23185 6.42715 1.36164 6.11486 1.59266 5.88461C1.82367 5.65436 2.137 5.525 2.46371 5.525H6.7752V7.36667H1.23185V6.75278ZM2.46371 11.6639V8.59445H6.7752V13.5056H4.31149C3.82143 13.5056 3.35144 13.3115 3.00491 12.9661C2.65839 12.6208 2.46371 12.1523 2.46371 11.6639ZM12.3185 11.6639C12.3185 12.1523 12.1239 12.6208 11.7773 12.9661C11.4308 13.3115 10.9608 13.5056 10.4708 13.5056H8.00706V8.59445H12.3185V11.6639ZM8.00706 7.36667V5.525H12.3185C12.6453 5.525 12.9586 5.65436 13.1896 5.88461C13.4206 6.11486 13.5504 6.42715 13.5504 6.75278V7.36667H8.00706Z" fill="#231F20"/>
</svg>
