<svg width="43" height="50" viewBox="0 0 43 50" fill="none" xmlns="http://www.w3.org/2000/svg">
<path d="M21.2363 2.44727C11.4361 2.44727 3.49219 10.3911 3.49219 20.1913C3.49219 25.0915 5.47676 29.5289 8.68776 32.7399C11.8987 35.9509 16.3362 37.9354 21.2363 37.9354C26.1364 37.9354 30.5738 35.9509 33.7848 32.7399C36.9958 29.5289 38.9803 25.0915 38.9803 20.1913C38.9803 10.3911 31.0365 2.44727 21.2363 2.44727Z" fill="#EBCA1C"/>
<path d="M29.6601 4.57117C23.3106 7.49785 17.5352 14.455 14.7424 23.5584C13.4379 27.823 12.9362 32.0653 13.1424 35.9898C15.5674 37.233 18.3213 37.9354 21.2368 37.9354C26.1369 37.9354 30.5743 35.9508 33.7853 32.7398C36.9963 29.5288 38.9809 25.0914 38.9809 20.1913C38.9809 13.4404 35.2124 7.57032 29.6601 4.57117Z" fill="#FEDD2C"/>
<path d="M3.3584 40.9401L8.99993 40.1318C9.51837 40.0593 10.0368 40.3436 10.2431 40.8509L12.3614 46.1357L16.0686 39.7137C12.6123 38.7994 9.51837 36.9932 7.04881 34.5571L3.3584 40.9401Z" fill="#EBCA1C"/>
<path d="M14.3017 42.7741L16.0689 39.7136C15.1602 39.4739 14.2738 39.1729 13.4209 38.8105C13.6216 40.1931 13.917 41.5143 14.3017 42.7741Z" fill="#FEDD2C"/>
<path d="M26.4043 39.7137L30.1114 46.1357L32.2298 40.8509C32.4361 40.3436 32.9545 40.0593 33.4729 40.1318L39.1145 40.9401L35.4241 34.5571C32.9601 36.9932 29.8606 38.7994 26.4043 39.7137Z" fill="#FEDD2C"/>
<path fill-rule="evenodd" clip-rule="evenodd" d="M10.3545 14.0257C10.3545 11.283 12.5119 9.05872 15.1766 9.05872C17.8357 9.05872 19.993 11.283 19.9986 14.0257C19.9986 16.7684 17.8357 18.9927 15.1766 18.9927C12.5119 18.9927 10.3545 16.7684 10.3545 14.0257ZM12.7627 14.0257C12.7627 15.3971 13.8442 16.512 15.1766 16.512C16.5033 16.512 17.5848 15.3971 17.5848 14.0257C17.5848 12.6543 16.5033 11.545 15.1766 11.545C13.8442 11.545 12.7627 12.6543 12.7627 14.0257Z" fill="black"/>
<path d="M30.1394 9.5772L10.6226 29.094C9.48538 30.2257 11.2024 31.9426 12.334 30.8054L31.8508 11.2886C32.9881 10.157 31.2711 8.43997 30.1394 9.5772Z" fill="black"/>
<path fill-rule="evenodd" clip-rule="evenodd" d="M32.118 26.3569C32.118 29.0996 29.9607 31.3239 27.296 31.3239C24.6369 31.3239 22.4795 29.0996 22.4795 26.3569C22.4795 23.6142 24.6369 21.3899 27.296 21.3899C29.9607 21.3899 32.118 23.6142 32.118 26.3569ZM29.7098 26.3569C29.7098 24.9855 28.6283 23.8706 27.296 23.8706C25.9692 23.8706 24.8877 24.9855 24.8877 26.3569C24.8877 27.7283 25.9692 28.8376 27.296 28.8376C28.6283 28.8376 29.7098 27.7283 29.7098 26.3569Z" fill="black"/>
<path fill-rule="evenodd" clip-rule="evenodd" d="M42.2753 41.7819C42.8272 42.6014 42.1527 43.7219 41.1492 43.5825L34.0471 42.5624L31.388 49.1962C31.048 50.0993 29.7937 50.2219 29.2975 49.369L24.0016 40.1931C23.0985 40.3158 22.1732 40.3827 21.2366 40.3827C20.3001 40.3827 19.3747 40.3158 18.4716 40.1931L13.1757 49.369C12.6795 50.2219 11.4252 50.0937 11.0852 49.1962L8.42609 42.5624L1.32958 43.5825C0.320567 43.7219 -0.353967 42.6014 0.197922 41.7819L5.42136 32.7399C2.68422 29.2947 1.04527 24.9354 1.04527 20.1913C1.04527 9.04206 10.0873 0 21.2366 0C32.3859 0 41.4279 9.04206 41.4279 20.1913C41.4279 24.9354 39.789 29.2947 37.0519 32.7399L42.2753 41.7819ZM16.0745 39.7137C12.6126 38.7995 9.51872 36.9933 7.04915 34.5572L3.36432 40.9401L9.00585 40.1318C9.52429 40.0593 10.0427 40.3437 10.2434 40.851L12.3618 46.1357L16.0745 39.7137ZM33.7963 32.7399C37.0073 29.5289 38.9918 25.0914 38.9918 20.1913C38.9918 10.3911 31.048 2.44726 21.2478 2.44726C11.442 2.44726 3.49811 10.3911 3.49811 20.1913C3.49811 25.0914 5.48268 29.5289 8.69925 32.7399C11.9047 35.9508 16.3421 37.941 21.2478 37.941C26.1479 37.941 30.5853 35.9508 33.7963 32.7399ZM39.1201 40.9401L35.4352 34.5572C32.9656 36.9933 29.8717 38.8051 26.4154 39.7137L30.1226 46.1357L32.2409 40.851C32.4416 40.3437 32.9657 40.0594 33.4785 40.1374L39.1201 40.9401Z" fill="black"/>
</svg>
