<svg width="15" height="15" viewBox="0 0 15 15" fill="none" xmlns="http://www.w3.org/2000/svg">
<g clip-path="url(#clip0_1_2420)">
<path d="M6.87938 1.61135L6.875 11.2601C6.875 11.4259 6.94085 11.5848 7.05806 11.702C7.17527 11.8193 7.33424 11.8851 7.5 11.8851C7.66576 11.8851 7.82473 11.8193 7.94194 11.702C8.05915 11.5848 8.125 11.4259 8.125 11.2601L8.12938 1.62198L9.94938 3.4426C10.0666 3.55977 10.2255 3.62559 10.3913 3.62559C10.557 3.62559 10.7159 3.55977 10.8331 3.4426C10.9503 3.3254 11.0161 3.16646 11.0161 3.00073C11.0161 2.835 10.9503 2.67606 10.8331 2.55885L8.82625 0.549478C8.65213 0.375241 8.44538 0.237022 8.21781 0.142719C7.99025 0.0484161 7.74633 -0.00012207 7.5 -0.00012207C7.25367 -0.00012207 7.00976 0.0484161 6.78219 0.142719C6.55463 0.237022 6.34788 0.375241 6.17375 0.549478L4.16688 2.55698C4.04971 2.67418 3.98389 2.83313 3.98389 2.99885C3.98389 3.16458 4.04971 3.32352 4.16688 3.44073C4.28408 3.5579 4.44303 3.62372 4.60875 3.62372C4.77448 3.62372 4.93342 3.5579 5.05063 3.44073L6.87938 1.61135Z" fill="white"/>
<path d="M13.75 10.6246V13.1246C13.75 13.2904 13.6842 13.4494 13.5669 13.5666C13.4497 13.6838 13.2908 13.7496 13.125 13.7496H1.875C1.70924 13.7496 1.55027 13.6838 1.43306 13.5666C1.31585 13.4494 1.25 13.2904 1.25 13.1246V10.6246C1.25 10.4589 1.18415 10.2999 1.06694 10.1827C0.949732 10.0655 0.79076 9.99963 0.625 9.99963C0.45924 9.99963 0.300269 10.0655 0.183058 10.1827C0.065848 10.2999 0 10.4589 0 10.6246L0 13.1246C0 13.6219 0.197544 14.0988 0.549175 14.4505C0.900805 14.8021 1.37772 14.9996 1.875 14.9996H13.125C13.6223 14.9996 14.0992 14.8021 14.4508 14.4505C14.8025 14.0988 15 13.6219 15 13.1246V10.6246C15 10.4589 14.9342 10.2999 14.8169 10.1827C14.6997 10.0655 14.5408 9.99963 14.375 9.99963C14.2092 9.99963 14.0503 10.0655 13.9331 10.1827C13.8158 10.2999 13.75 10.4589 13.75 10.6246Z" fill="white"/>
</g>
<defs>
<clipPath id="clip0_1_2420">
<rect width="15" height="15" fill="white"/>
</clipPath>
</defs>
</svg>
